{
    "asset" : {
        "generator" : "Khronos glTF Blender I/O v3.4.50",
        "version" : "2.0"
    },
    "extensionsUsed" : [
        "KHR_materials_specular",
        "KHR_materials_ior"
    ],
    "scene" : 0,
    "scenes" : [
        {
            "name" : "Scene",
            "nodes" : [
                0,
                1,
                2
            ]
        }
    ],
    "nodes" : [
        {
            "mesh" : 0,
            "name" : "Head",
            "rotation" : [
                0,
                -0.7071068286895752,
                0,
                0.7071068286895752
            ]
        },
        {
            "mesh" : 1,
            "name" : "Body",
            "rotation" : [
                0,
                -0.7071068286895752,
                0,
                0.7071068286895752
            ],
            "scale" : [
                0.5183653235435486,
                0.5183653235435486,
                0.5183653235435486
            ],
            "translation" : [
                0,
                -1.0555704832077026,
                0
            ]
        },
        {
            "mesh" : 2,
            "name" : "T-shirt",
            "rotation" : [
                0,
                -0.7071068286895752,
                0,
                0.7071068286895752
            ],
            "scale" : [
                0.5711234211921692,
                0.5711234211921692,
                0.5711234211921692
            ],
            "translation" : [
                0,
                -1.0555704832077026,
                0
            ]
        }
    ],
    "materials" : [
        {
            "doubleSided" : true,
            "extensions" : {
                "KHR_materials_specular" : {
                    "specularColorFactor" : [
                        0,
                        0,
                        0
                    ]
                },
                "KHR_materials_ior" : {
                    "ior" : 1.4500000476837158
                }
            },
            "name" : "FroggyFrogMat",
            "pbrMetallicRoughness" : {
                "baseColorTexture" : {
                    "index" : 0
                },
                "metallicFactor" : 0,
                "roughnessFactor" : 0
            }
        }
    ],
    "meshes" : [
        {
            "name" : "Roundcube",
            "primitives" : [
                {
                    "attributes" : {
                        "POSITION" : 0,
                        "TEXCOORD_0" : 1,
                        "NORMAL" : 2
                    },
                    "indices" : 3,
                    "material" : 0
                }
            ]
        },
        {
            "name" : "Roundcube.001",
            "primitives" : [
                {
                    "attributes" : {
                        "POSITION" : 4,
                        "TEXCOORD_0" : 5,
                        "NORMAL" : 6
                    },
                    "indices" : 7,
                    "material" : 0
                }
            ]
        },
        {
            "name" : "Roundcube.003",
            "primitives" : [
                {
                    "attributes" : {
                        "POSITION" : 8,
                        "TEXCOORD_0" : 9,
                        "NORMAL" : 10
                    },
                    "indices" : 11,
                    "material" : 0
                }
            ]
        }
    ],
    "textures" : [
        {
            "sampler" : 0,
            "source" : 0
        }
    ],
    "images" : [
        {
            "bufferView" : 4,
            "mimeType" : "image/png",
            "name" : "FroggyFrog"
        }
    ],
    "accessors" : [
        {
            "bufferView" : 0,
            "componentType" : 5126,
            "count" : 2754,
            "max" : [
                0.9349587559700012,
                1.286920189857483,
                1.1267675161361694
            ],
            "min" : [
                -0.934958815574646,
                -0.7836548686027527,
                -1.1267675161361694
            ],
            "type" : "VEC3"
        },
        {
            "bufferView" : 1,
            "componentType" : 5126,
            "count" : 2754,
            "type" : "VEC2"
        },
        {
            "bufferView" : 2,
            "componentType" : 5126,
            "count" : 2754,
            "type" : "VEC3"
        },
        {
            "bufferView" : 3,
            "componentType" : 5123,
            "count" : 15744,
            "type" : "SCALAR"
        },
        {
            "bufferView" : 5,
            "componentType" : 5126,
            "count" : 5100,
            "max" : [
                0.8258845210075378,
                0.9387955069541931,
                1.9649901390075684
            ],
            "min" : [
                -0.952752947807312,
                -2.30261492729187,
                -1.964990258216858
            ],
            "type" : "VEC3"
        },
        {
            "bufferView" : 6,
            "componentType" : 5126,
            "count" : 5100,
            "type" : "VEC2"
        },
        {
            "bufferView" : 7,
            "componentType" : 5126,
            "count" : 5100,
            "type" : "VEC3"
        },
        {
            "bufferView" : 8,
            "componentType" : 5123,
            "count" : 28800,
            "type" : "SCALAR"
        },
        {
            "bufferView" : 9,
            "componentType" : 5126,
            "count" : 1522,
            "max" : [
                0.9517948627471924,
                0.9768697023391724,
                1.5183329582214355
            ],
            "min" : [
                -1.012403130531311,
                -1.2935837507247925,
                -1.5183329582214355
            ],
            "type" : "VEC3"
        },
        {
            "bufferView" : 10,
            "componentType" : 5126,
            "count" : 1522,
            "type" : "VEC2"
        },
        {
            "bufferView" : 11,
            "componentType" : 5126,
            "count" : 1522,
            "type" : "VEC3"
        },
        {
            "bufferView" : 12,
            "componentType" : 5123,
            "count" : 8448,
            "type" : "SCALAR"
        }
    ],
    "bufferViews" : [
        {
            "buffer" : 0,
            "byteLength" : 33048,
            "byteOffset" : 0,
            "target" : 34962
        },
        {
            "buffer" : 0,
            "byteLength" : 22032,
            "byteOffset" : 33048,
            "target" : 34962
        },
        {
            "buffer" : 0,
            "byteLength" : 33048,
            "byteOffset" : 55080,
            "target" : 34962
        },
        {
            "buffer" : 0,
            "byteLength" : 31488,
            "byteOffset" : 88128,
            "target" : 34963
        },
        {
            "buffer" : 0,
            "byteLength" : 250172,
            "byteOffset" : 119616
        },
        {
            "buffer" : 0,
            "byteLength" : 61200,
            "byteOffset" : 369788,
            "target" : 34962
        },
        {
            "buffer" : 0,
            "byteLength" : 40800,
            "byteOffset" : 430988,
            "target" : 34962
        },
        {
            "buffer" : 0,
            "byteLength" : 61200,
            "byteOffset" : 471788,
            "target" : 34962
        },
        {
            "buffer" : 0,
            "byteLength" : 57600,
            "byteOffset" : 532988,
            "target" : 34963
        },
        {
            "buffer" : 0,
            "byteLength" : 18264,
            "byteOffset" : 590588,
            "target" : 34962
        },
        {
            "buffer" : 0,
            "byteLength" : 12176,
            "byteOffset" : 608852,
            "target" : 34962
        },
        {
            "buffer" : 0,
            "byteLength" : 18264,
            "byteOffset" : 621028,
            "target" : 34962
        },
        {
            "buffer" : 0,
            "byteLength" : 16896,
            "byteOffset" : 639292,
            "target" : 34963
        }
    ],
    "samplers" : [
        {
            "magFilter" : 9728,
            "minFilter" : 9984
        }
    ],
    "buffers" : [
        {
            "byteLength" : 656188,
            "uri" : "data:application/octet-stream;base64,"
        }
    ]
}
